<svg width="100" height="100" viewBox="0 0 100 100" fill="none" xmlns="http://www.w3.org/2000/svg">
<circle cx="50" cy="50" r="50" fill="#0A0A0A"/>
<path d="M38.72 67.28C37.44 67.28 36.192 67.072 34.976 66.656C33.728 66.24 32.736 65.696 32 65.024L34.976 60.656C35.52 61.136 36.128 61.52 36.8 61.808C37.504 62.128 38.304 62.288 39.2 62.288C40.192 62.288 41.072 62.016 41.84 61.472C42.64 60.96 43.44 60.064 44.24 58.784L46.496 55.28L47.072 54.656L61.184 32H67.184L49.52 59.888C48.336 61.744 47.2 63.216 46.112 64.304C45.024 65.392 43.888 66.16 42.704 66.608C41.552 67.056 40.224 67.28 38.72 67.28ZM45.296 58.544L39.008 32H45.008L50.048 54.128L45.296 58.544Z" fill="white"/>
<path d="M51.28 67.112C50.928 67.112 50.6293 66.9947 50.384 66.76C50.1493 66.5253 50.032 66.2267 50.032 65.864C50.032 65.448 50.1707 65.112 50.448 64.856C50.7253 64.5893 51.0507 64.456 51.424 64.456C51.776 64.456 52.0693 64.5733 52.304 64.808C52.5387 65.032 52.656 65.3307 52.656 65.704C52.656 65.9813 52.592 66.2267 52.464 66.44C52.336 66.6533 52.1653 66.8187 51.952 66.936C51.7493 67.0533 51.5253 67.112 51.28 67.112ZM58.5016 67.112C57.659 67.112 56.9176 66.9573 56.2776 66.648C55.6483 66.328 55.163 65.8907 54.8216 65.336C54.4803 64.7707 54.3096 64.1093 54.3096 63.352C54.3096 62.392 54.5283 61.5387 54.9656 60.792C55.403 60.0347 56.0056 59.4427 56.7736 59.016C57.5416 58.5787 58.427 58.36 59.4296 58.36C60.2936 58.36 61.035 58.5307 61.6536 58.872C62.283 59.2027 62.7683 59.6987 63.1096 60.36L61.3976 61.24C61.2056 60.8347 60.9283 60.536 60.5656 60.344C60.2136 60.152 59.7816 60.056 59.2696 60.056C58.715 60.056 58.2136 60.1947 57.7656 60.472C57.3176 60.7387 56.9656 61.112 56.7096 61.592C56.4536 62.072 56.3256 62.6267 56.3256 63.256C56.3256 63.9173 56.523 64.44 56.9176 64.824C57.3123 65.208 57.8723 65.4 58.5976 65.4C59.067 65.4 59.5043 65.304 59.9096 65.112C60.315 64.92 60.6563 64.6213 60.9336 64.216L62.4056 65.208C62.011 65.8053 61.467 66.2747 60.7736 66.616C60.0803 66.9467 59.323 67.112 58.5016 67.112ZM67.6255 67.112C66.7935 67.112 66.0628 66.9573 65.4335 66.648C64.8148 66.328 64.3348 65.8907 63.9935 65.336C63.6522 64.7707 63.4815 64.1093 63.4815 63.352C63.4815 62.392 63.7002 61.5387 64.1375 60.792C64.5748 60.0347 65.1722 59.4427 65.9295 59.016C66.6975 58.5787 67.5722 58.36 68.5535 58.36C69.3962 58.36 70.1268 58.5147 70.7455 58.824C71.3748 59.1227 71.8602 59.5547 72.2015 60.12C72.5428 60.6747 72.7135 61.336 72.7135 62.104C72.7135 63.0533 72.4948 63.9067 72.0575 64.664C71.6202 65.4213 71.0175 66.0187 70.2495 66.456C69.4922 66.8933 68.6175 67.112 67.6255 67.112ZM67.7535 65.4C68.3295 65.4 68.8362 65.2667 69.2735 65C69.7108 64.7227 70.0575 64.344 70.3135 63.864C70.5695 63.384 70.6975 62.8293 70.6975 62.2C70.6975 61.5387 70.5002 61.016 70.1055 60.632C69.7108 60.248 69.1562 60.056 68.4415 60.056C67.8762 60.056 67.3695 60.1947 66.9215 60.472C66.4842 60.7387 66.1375 61.112 65.8815 61.592C65.6255 62.072 65.4975 62.6267 65.4975 63.256C65.4975 63.928 65.6948 64.456 66.0895 64.84C66.4842 65.2133 67.0388 65.4 67.7535 65.4ZM85.97 58.36C86.7167 58.36 87.3407 58.5093 87.842 58.808C88.3433 59.1067 88.6953 59.5493 88.898 60.136C89.1007 60.712 89.1167 61.4213 88.946 62.264L88.002 67H86.002L86.946 62.312C87.0847 61.608 87.026 61.064 86.77 60.68C86.514 60.296 86.05 60.104 85.378 60.104C84.6847 60.104 84.114 60.3067 83.666 60.712C83.2287 61.1067 82.9247 61.72 82.754 62.552L81.858 67H79.858L80.802 62.312C80.9407 61.608 80.882 61.064 80.626 60.68C80.37 60.296 79.906 60.104 79.234 60.104C78.5407 60.104 77.97 60.3067 77.522 60.712C77.0847 61.1067 76.7807 61.7253 76.61 62.568L75.714 67H73.714L75.41 58.456H77.314L76.85 60.808L76.514 60.12C76.9087 59.512 77.3993 59.0693 77.986 58.792C78.5833 58.504 79.234 58.36 79.938 58.36C80.4927 58.36 80.9833 58.456 81.41 58.648C81.8367 58.8293 82.178 59.112 82.434 59.496C82.7007 59.8693 82.8553 60.3333 82.898 60.888L81.938 60.68C82.3753 59.912 82.9353 59.336 83.618 58.952C84.3113 58.5573 85.0953 58.36 85.97 58.36Z" fill="white"/>
</svg>
